<svg xmlns="http://www.w3.org/2000/svg" viewBox="400 260 760 430">
 <g fill="#fffffe">
  <path d="M883.08 633.97 c6.52 -2.83 13.29 -10.95 35.32 -41.85 8.86 -12.55 17.60 -24.74 19.32 -27.08 l3.08 -4.06 -6.65 0.86 c-3.69 0.49 -8 1.72 -9.60 2.71 -1.72 0.98 -7.88 2.22 -14.77 2.71 -6.52 0.49 -13.05 1.48 -14.40 2.22 -1.35 0.74 -7.38 2.09 -13.54 2.83 -18.22 2.46 -88.62 15.26 -107.08 19.57 -4.80 1.23 -25.60 4.80 -73.85 13.05 -13.54 2.34 -30.15 5.42 -36.92 6.89 -6.77 1.35 -14.28 2.83 -16.62 3.20 -2.34 0.25 -25.35 4.31 -51.08 8.98 -25.72 4.68 -49.48 8.86 -52.92 9.48 -10.71 1.72 21.05 2.22 181.91 2.58 147.69 0.25 152.62 0.25 157.78 -2.09z m80.49 -17.48 c19.82 -10.46 49.60 -31.02 66.46 -45.78 21.78 -19.08 65.35 -63.02 98.34 -99.20 16.37 -17.97 29.54 -32.74 29.29 -32.98 -0.49 -0.49 -76.92 15.38 -143.51 29.91 -26.09 5.66 -52.92 11.45 -59.69 12.80 -6.77 1.23 -17.60 3.45 -24 4.80 -6.40 1.35 -20.80 4.43 -32 6.77 -11.20 2.34 -23.75 5.17 -28.06 6.28 -4.18 1.11 -10.34 2.46 -13.54 3.08 -15.75 2.71 -71.51 14.52 -72.86 15.38 -0.49 0.25 -3.82 0.98 -7.51 1.72 -3.69 0.62 -14.65 2.83 -24.49 5.05 -9.85 2.09 -21.42 4.55 -25.85 5.42 -4.43 0.98 -10.46 2.22 -13.54 2.95 -3.08 0.74 -16.62 3.69 -30.15 6.52 -13.54 2.83 -33.23 7.02 -43.69 9.48 -10.46 2.34 -21.66 4.68 -24.74 5.17 -3.08 0.62 -9.23 1.85 -13.54 2.83 -19.69 4.68 -42.46 9.72 -78.03 17.48 -8.12 1.72 -16.98 3.69 -19.69 4.31 -2.71 0.62 -7.63 1.72 -11.08 2.46 -3.32 0.74 -10.58 2.34 -16 3.57 -5.42 1.23 -13.29 2.95 -17.60 3.82 -4.18 0.86 -7.51 1.72 -7.26 1.97 0.25 0.25 5.42 -0.12 11.45 -0.74 41.72 -4.31 82.22 -8.74 95.51 -10.34 32.74 -4.06 46.28 -5.66 58.83 -6.89 7.14 -0.74 17.11 -1.85 22.15 -2.46 5.05 -0.62 14.52 -1.72 20.92 -2.34 6.40 -0.74 18.09 -2.22 25.85 -3.20 7.75 -0.98 24.37 -2.95 36.92 -4.31 22.40 -2.58 103.63 -12.68 119.38 -14.77 4.43 -0.62 12.18 -1.72 17.23 -2.34 5.05 -0.74 18.09 -2.46 28.92 -3.94 10.83 -1.35 23.63 -3.08 28.31 -3.69 4.80 -0.49 9.97 -1.23 11.69 -1.60 1.72 -0.37 8.12 -1.23 14.15 -1.97 6.15 -0.86 15.75 -2.22 21.42 -3.20 5.66 -0.98 14.15 -1.72 18.71 -1.72 l8.49 0 0 4.55 c0 5.17 1.35 2.71 -30.89 56.62 -13.54 22.40 -24.49 41.11 -24.49 41.48 0 1.11 12.55 -4.68 28.18 -12.92z m-276.43 -115.20 c3.45 -0.98 9.23 -2.34 12.55 -2.95 3.45 -0.49 15.63 -3.20 27.08 -5.91 11.57 -2.71 31.14 -7.14 43.69 -9.97 27.69 -6.28 41.60 -9.48 66.46 -15.38 35.20 -8.25 38.77 -9.11 51.08 -11.69 6.77 -1.48 17.85 -3.94 24.62 -5.54 6.77 -1.60 24.25 -5.78 38.77 -9.23 36.18 -8.49 53.66 -12.55 77.54 -18.34 11.20 -2.71 24.62 -5.91 30.03 -7.02 6.77 -1.60 10.09 -2.95 11.20 -4.80 0.98 -1.35 11.20 -24.62 22.77 -51.69 19.69 -45.78 36.55 -84.43 48.25 -110.65 2.58 -5.91 4.68 -10.95 4.43 -11.20 -0.25 -0.12 -13.91 3.69 -30.52 8.62 -16.62 4.92 -66.46 19.57 -110.77 32.62 -123.94 36.31 -135.51 39.75 -133.91 40.74 0.86 0.37 10.22 1.48 20.68 2.22 23.75 1.85 66.95 6.03 72.37 7.02 3.69 0.74 3.94 1.11 3.94 5.91 0 2.83 -0.74 6.15 -1.48 7.26 -2.95 3.94 -24 11.69 -62.03 22.89 -20.92 6.28 -43.32 12.92 -49.72 14.89 -6.40 1.97 -13.29 3.94 -15.38 4.43 -1.97 0.37 -20.06 5.42 -40 11.20 -19.94 5.78 -40.12 11.45 -44.92 12.68 -16.74 4.55 -80.98 23.51 -83.08 24.62 -1.23 0.62 -2.46 2.95 -2.95 5.05 -0.98 5.05 -0.98 44.31 0.12 57.48 l0.74 10.22 6.03 -0.74 c3.32 -0.49 8.86 -1.72 12.43 -2.71z"/>
 </g>
 <g fill="#03a4e0">
  <path d="M924.31 638.03 c0 -0.37 12.68 -21.78 28.18 -47.63 31.63 -52.92 34.58 -57.97 34.58 -59.08 0 -1.35 -8.86 -0.98 -19.82 0.86 -5.66 0.98 -15.26 2.34 -21.42 3.20 -6.03 0.74 -12.43 1.60 -14.15 1.97 -1.72 0.37 -6.89 1.11 -11.69 1.60 -4.68 0.62 -17.48 2.34 -28.31 3.69 -10.83 1.48 -23.88 3.20 -28.92 3.94 -5.05 0.62 -12.80 1.72 -17.23 2.34 -15.75 2.09 -96.98 12.18 -119.38 14.77 -12.55 1.35 -29.17 3.32 -36.92 4.31 -7.75 0.98 -19.45 2.46 -25.85 3.20 -6.40 0.62 -15.88 1.72 -20.92 2.34 -5.05 0.62 -15.02 1.72 -22.15 2.46 -12.55 1.23 -26.09 2.83 -58.83 6.89 -36.80 4.43 -129.60 13.91 -138.58 14.03 -3.45 0 -3.45 -0.12 -1.48 -2.34 2.34 -2.58 13.42 -5.54 49.97 -13.66 16.86 -3.82 21.54 -4.80 27.45 -6.03 2.83 -0.74 11.82 -2.71 19.94 -4.43 35.57 -7.75 58.34 -12.80 78.03 -17.48 4.31 -0.98 10.46 -2.22 13.54 -2.83 3.08 -0.49 14.28 -2.83 24.74 -5.17 10.46 -2.46 30.15 -6.65 43.69 -9.48 13.54 -2.83 27.08 -5.78 30.15 -6.52 3.08 -0.74 9.11 -1.97 13.54 -2.95 4.43 -0.86 16 -3.32 25.85 -5.42 9.85 -2.22 20.80 -4.43 24.49 -5.05 3.69 -0.74 7.02 -1.48 7.51 -1.72 1.35 -0.86 57.11 -12.68 72.86 -15.38 3.20 -0.62 9.35 -1.97 13.54 -3.08 4.31 -1.11 16.86 -3.94 28.06 -6.28 11.20 -2.34 25.60 -5.42 32 -6.77 6.40 -1.35 17.23 -3.57 24 -4.80 6.77 -1.35 28.68 -6.03 48.62 -10.46 32.49 -7.14 84.80 -18.22 148.06 -31.38 11.94 -2.46 21.78 -3.94 21.78 -3.32 0 1.60 -8.37 11.20 -40.49 46.40 -30.15 33.11 -74.09 77.29 -95.02 95.63 -25.60 22.40 -65.85 47.51 -96.12 59.94 -10.46 4.31 -13.29 5.17 -13.29 3.69z"/>
 </g>
 <g fill="#03ddf6">
  <path d="M664.12 495.75 c-0.98 -3.69 -0.98 -58.58 0 -62.15 0.49 -1.60 1.60 -2.83 2.46 -2.83 1.48 0 1.72 5.91 1.72 33.85 0 27.94 -0.25 33.85 -1.72 33.85 -0.86 0 -1.97 -1.23 -2.46 -2.71z"/>
  <path d="M903.38 453.78 c0 -1.60 2.22 -7.51 5.05 -13.29 2.83 -5.66 11.32 -23.63 18.95 -39.88 23.26 -49.72 27.94 -58.46 31.63 -60.43 3.08 -1.60 5.66 -6.03 4.31 -7.38 -0.98 -0.98 -27.32 -3.82 -67.32 -7.14 -20.68 -1.85 -39.38 -3.57 -41.72 -3.94 -9.85 -1.60 -11.45 -1.11 142.03 -46.03 41.97 -12.31 93.17 -27.32 113.85 -33.48 44.43 -13.17 43.08 -12.92 43.08 -10.58 0 0.98 -2.95 8.37 -6.65 16.49 -9.85 21.66 -26.22 59.08 -49.97 114.34 -11.57 27.08 -21.78 50.34 -22.77 51.69 -1.11 1.85 -4.43 3.20 -11.20 4.80 -5.42 1.11 -18.83 4.31 -30.03 7.02 -25.72 6.15 -44.31 10.58 -77.54 18.34 -14.52 3.45 -30.65 7.26 -35.69 8.49 -17.23 4.31 -16 4.18 -16 0.98z"/>
 </g>
 <g fill="#0389be">
  <path d="M664.62 469.54 c0 -37.54 0.12 -40 2.22 -41.11 2.22 -1.23 65.85 -20.06 83.32 -24.74 4.80 -1.23 24.98 -6.89 44.92 -12.68 19.94 -5.78 38.03 -10.83 40 -11.20 2.09 -0.49 8.98 -2.46 15.38 -4.43 6.40 -1.97 28.80 -8.62 49.72 -14.89 20.92 -6.15 43.08 -13.29 49.23 -16 6.15 -2.58 11.57 -4.80 12.06 -4.80 0.49 0 -2.95 7.88 -7.75 17.48 -4.80 9.60 -15.26 31.26 -23.26 48.25 -21.66 46.15 -23.63 50.22 -25.11 50.58 -0.74 0.25 -6.89 1.60 -13.66 3.08 -12.31 2.58 -15.75 3.32 -51.08 11.69 -24.86 5.91 -38.77 9.11 -66.46 15.38 -12.55 2.83 -32.37 7.26 -43.94 10.09 -11.69 2.71 -23.63 5.17 -26.46 5.54 -2.95 0.37 -6.15 1.11 -7.26 1.72 -2.22 1.11 -26.22 6.03 -29.54 6.03 -2.22 0 -2.34 -1.60 -2.34 -40z"/>
 </g>
 <g fill="#6535bf">
  <path d="M499.20 637.91 c1.11 -0.74 5.17 -1.72 8.98 -2.22 3.82 -0.37 13.29 -1.97 21.05 -3.69 13.66 -2.95 98.09 -18.34 112 -20.43 3.69 -0.49 12.31 -2.09 19.08 -3.57 6.77 -1.35 23.38 -4.43 36.92 -6.77 48.25 -8.25 69.05 -11.82 73.85 -13.05 18.46 -4.31 88.86 -17.11 107.08 -19.57 6.15 -0.74 12.18 -2.09 13.54 -2.83 1.35 -0.74 7.88 -1.72 14.40 -2.22 6.52 -0.49 13.17 -1.72 14.77 -2.71 3.08 -1.85 26.58 -6.52 27.69 -5.42 0.98 1.11 -3.20 7.63 -23.88 36.68 -24.86 34.95 -31.26 42.58 -38.15 45.66 -5.54 2.46 -8 2.46 -197.42 1.97 -148.92 -0.25 -191.51 -0.74 -189.91 -1.85z"/>
 </g>
</svg>
